<svg id="Layer_1" data-name="Layer 1" xmlns="http://www.w3.org/2000/svg" viewBox="0 0 236.56 226.22"><defs><style>.cls-1{fill:#a5cd39;}</style></defs><title>Logo 2018</title><rect class="cls-1" x="122.95" y="54.08" width="10.48" height="1.77" transform="translate(-9.86 35.05) rotate(-15)"/><rect class="cls-1" x="125.01" y="61.73" width="10.48" height="1.78" transform="translate(-11.77 35.85) rotate(-15)"/><rect class="cls-1" x="123.92" y="57.42" width="14.21" height="1.78" transform="translate(-10.63 35.9) rotate(-15)"/><rect class="cls-1" x="77.42" y="66.28" width="10.48" height="1.77" transform="translate(-14.57 23.69) rotate(-15)"/><rect class="cls-1" x="79.47" y="73.94" width="10.48" height="1.78" transform="translate(-16.46 24.44) rotate(-14.98)"/><rect class="cls-1" x="74.78" y="70.59" width="14.21" height="1.78" transform="translate(-15.71 23.64) rotate(-15)"/><path class="cls-1" d="M111.34,66.82c.92-.25.8-1.14.27-3.14s-.88-2.83-1.8-2.58-.8,1.14-.27,3.14S110.42,67.06,111.34,66.82Z"/><path class="cls-1" d="M111.93,77.88a2.09,2.09,0,0,0,2.78-1.6,4,4,0,0,1,2.86-2.87,2.08,2.08,0,0,0,1.61-2.78,4,4,0,0,1,1-3.91,2.09,2.09,0,0,0,0-3.21,3.94,3.94,0,0,1-1-3.91,2.08,2.08,0,0,0-1.61-2.78A4,4,0,0,1,114.71,54a2.09,2.09,0,0,0-2.78-1.61A4,4,0,0,1,108,51.3a2.09,2.09,0,0,0-3.21,0,4,4,0,0,1-3.91,1.05A2.1,2.1,0,0,0,98.12,54a4,4,0,0,1-2.86,2.86,2.09,2.09,0,0,0-1.61,2.78,3.94,3.94,0,0,1-1.05,3.91,2.09,2.09,0,0,0,0,3.21,4,4,0,0,1,1.05,3.91,2.09,2.09,0,0,0,1.61,2.78,4,4,0,0,1,2.86,2.86,2.08,2.08,0,0,0,2.78,1.61,3.94,3.94,0,0,1,3.91,1.05,2.09,2.09,0,0,0,3.21,0A4,4,0,0,1,111.93,77.88ZM109.5,59.94c2.68-.72,3.21,1.24,3.76,3.3s1.08,4-1.61,4.74-3.22-1.26-3.76-3.3S106.81,60.65,109.5,59.94Zm-5,9.83-2.65.71-2.09-7.79,2.72-.72c2.13-.58,2.92.74,3.56,3.16C106.33,66.33,107.24,69,104.46,69.77Z"/><path class="cls-1" d="M102.51,63.23l-.84.22,1.45,5.39.78-.21a.94.94,0,0,0,.72-.55,4.44,4.44,0,0,0-.25-2.46C104,64.19,103.64,62.93,102.51,63.23Z"/><path class="cls-1" d="M6.45,110.48,17,107.66a.71.71,0,0,0,.53-.64A101.43,101.43,0,0,1,203.3,57.24a.71.71,0,0,0,.77.29l10.55-2.83a.7.7,0,0,0,.42-1.05,114.36,114.36,0,0,0-53.9-45.34A113,113,0,0,0,29.58,43.57a114.31,114.31,0,0,0-24,66.21.73.73,0,0,0,.27.57A.69.69,0,0,0,6.45,110.48Z"/><path class="cls-1" d="M231.18,115.69l-10.53,2.83a.35.35,0,0,0-.26.32A101.78,101.78,0,0,1,33.53,168.91a.36.36,0,0,0-.39-.15l-10.53,2.82a.35.35,0,0,0-.24.22.34.34,0,0,0,0,.31A114,114,0,0,0,76.18,217.8a112.67,112.67,0,0,0,131.71-35.29,114.05,114.05,0,0,0,23.74-66.46.39.39,0,0,0-.13-.29A.37.37,0,0,0,231.18,115.69Z"/><polygon class="cls-1" points="14.15 169.09 30.37 164.75 26.87 159.22 20.6 135.83 19.42 132.91 21.36 135.63 41.31 161.82 41.69 161.72 45.88 129.06 46.2 125.73 46.63 128.85 52.9 152.24 52.63 158.78 70.36 154.03 66.86 148.5 55.94 107.76 56.2 101.22 36.97 106.38 33.99 129.98 34.08 131.81 33.24 130.18 18.86 111.23 0 116.28 3.5 121.81 14.42 162.55 14.15 169.09"/><path class="cls-1" d="M89.2,136.85l12.45-3.33,1,.55L105,138.3l.87,6.23,18.48-4.95-4.64-5.23-21.78-39L97.7,90.1,72.05,97l2.44,4.6.66,44.7-1.4,6.85,17.35-4.65-2.37-5.84-.08-4.83ZM87.43,107l-.33-2.74,1.09,2.54L96.3,122l-.55,1L89,124.79l-1-.55Z"/><polygon class="cls-1" points="127.69 138.67 158.63 130.38 159.61 113.54 152.55 118.26 141.98 121.09 140.55 120.27 131.96 88.2 132.4 80.8 113.54 85.86 117.04 91.39 127.96 132.13 127.69 138.67"/><polygon class="cls-1" points="174.21 82.94 180.09 81.37 188.64 81.91 179.55 68.17 145.97 77.17 144.96 93.61 152.1 88.87 157.99 87.29 158.94 87.84 167.43 119.53 166.92 128.16 186.91 122.8 182.15 115.59 173.66 83.9 174.21 82.94"/><polygon class="cls-1" points="229.34 97.69 216.67 101.08 215.23 100.26 213.31 93.09 213.86 92.13 218.77 90.82 224.93 91.19 220.69 75.34 215.53 78.75 210.63 80.06 209.67 79.51 208.25 74.23 208.66 73.31 221.64 69.83 228.88 70.32 220.28 57.26 188.6 65.75 192.1 71.28 203.02 112.02 202.75 118.56 235.57 109.77 236.56 92.93 229.34 97.69"/><path class="cls-1" d="M132.57,170.77a1.61,1.61,0,0,0,.19-1.16.81.81,0,0,0-.18-.33.66.66,0,0,0-.24-.17,1.15,1.15,0,0,0-.26-.17c-.41.64-.81,1.27-1.19,1.9l-1.11,1.79q-2.94,4.63-5.17,8c-1.49,2.23-2.87,4.15-4.14,5.74a29.55,29.55,0,0,1-3.65,3.91,16.92,16.92,0,0,1-3.63,2.45c-.52.26-.87,0-1.06-.71a7.55,7.55,0,0,1,.22-3.24,27.48,27.48,0,0,1,1.61-4.85,31.47,31.47,0,0,1,2.81-5.08,14.83,14.83,0,0,1,3.88-4c.16-.08.27,0,.32.2a.68.68,0,0,1,0,.19.53.53,0,0,0,0,.14l0,.13a8.35,8.35,0,0,1-.64,1.41,15.14,15.14,0,0,1-1,1.58,18.44,18.44,0,0,1-1.27,1.81c-.26.25-.37.48-.31.69.11.38.31.53.64.45a3.46,3.46,0,0,0,.83-.3,10.28,10.28,0,0,0,2.79-2,11.84,11.84,0,0,0,1.91-2.51,10.24,10.24,0,0,0,1-2.55,4.23,4.23,0,0,0,.08-2.07,1.68,1.68,0,0,0-.67-.85,2,2,0,0,0-1.09-.29,4.46,4.46,0,0,0-1.86.57,16.15,16.15,0,0,0-3.13,2.15,28.83,28.83,0,0,0-3.31,3.32,40.83,40.83,0,0,0-3.07,4.12,28.86,28.86,0,0,0-2.41,4.6,19.81,19.81,0,0,0-1.33,4.7,10.86,10.86,0,0,0,.23,4.42,5.37,5.37,0,0,0,.92,2,2.51,2.51,0,0,0,1.25.85,2.69,2.69,0,0,0,1.38,0,6.21,6.21,0,0,0,1.33-.48,15,15,0,0,0,3.59-2.67,41.7,41.7,0,0,0,3.81-4.25q1.91-2.43,3.72-5.16c1.22-1.83,2.34-3.62,3.39-5.38s2-3.43,2.81-5S132.09,171.84,132.57,170.77Z"/><path class="cls-1" d="M131.36,182.24a.36.36,0,0,1-.21,0,.53.53,0,0,1-.25.07,4.26,4.26,0,0,0-1.16,1,12.3,12.3,0,0,0-1.25,1.77,8.78,8.78,0,0,0-.89,2.1,3.59,3.59,0,0,0-.09,1.93c.12.45.35.7.69.72a1,1,0,0,0,.49,0,5,5,0,0,0,1.67-1.36,15.33,15.33,0,0,0,1.22-1.79,13.1,13.1,0,0,0,1-2.26,1.39,1.39,0,0,0,.16-.64,2.36,2.36,0,0,0-.09-.52,1.1,1.1,0,0,0-.31-.53,4.59,4.59,0,0,0-.74-.54A.27.27,0,0,0,131.36,182.24Z"/><path class="cls-1" d="M155.28,164.7c0,.14-.06.25-.08.33l-1.26,4.11a9.06,9.06,0,0,0-.4,2.39,6.52,6.52,0,0,0,.15,1.58,5.14,5.14,0,0,0,.93,2,2.51,2.51,0,0,0,1.24.86,2.59,2.59,0,0,0,1.38,0,6,6,0,0,0,1.33-.48,6.46,6.46,0,0,0,1.82-1.61,33.13,33.13,0,0,0,2.18-2.94c.75-1.14,1.53-2.42,2.32-3.81s1.58-2.8,2.34-4.21q2.63-5,5.41-11a1.61,1.61,0,0,0,.18-1.16.65.65,0,0,0-.17-.33.56.56,0,0,0-.24-.17,1.15,1.15,0,0,0-.26-.17c-1.45,2.25-2.73,4.33-3.85,6.22s-2.16,3.63-3.12,5.19-1.85,3-2.71,4.24a26.6,26.6,0,0,1-2.59,3.32,7.48,7.48,0,0,1-1.58,1.49c-.26.13-.43.15-.51.05a.78.78,0,0,1-.15-.25,3,3,0,0,1,0-1c0-.17.05-.35.08-.52a6.64,6.64,0,0,1,.34-1.82c.21-.69.55-1.61,1-2.75s1.06-2.55,1.78-4.25,1.58-3.79,2.59-6.31a1.11,1.11,0,0,0,0-.67.57.57,0,0,0-.16-.29.91.91,0,0,0-.24-.16,1.32,1.32,0,0,1-.3-.09l-1.3-.35a.69.69,0,0,0-.46.11,1.9,1.9,0,0,0-.44.3c-.13.13-.26.26-.37.39a2.74,2.74,0,0,1-.36.48q-.13.3-.69,1.23c-.37.61-.77,1.26-1.21,2s-1,1.7-1.63,2.7c-.05.11-.33.58-.86,1.41s-1.11,1.72-1.73,2.66q-1.09,1.67-2.45,3.75l-.21.29-.06,0a1.69,1.69,0,0,1,.14-.71,4.45,4.45,0,0,1,.23-.59l1.9-6.2a1.58,1.58,0,0,0,0-.85.69.69,0,0,0-.34-.45,1,1,0,0,0-.54-.15,2.45,2.45,0,0,0-.54,0,1.82,1.82,0,0,0-.36.09l-.35.23a2.94,2.94,0,0,0-.46.53l-.7,1c-.3.41-.66,1-1.1,1.65l-5.2,8.07-.13.12c-.06,0-.1,0-.12-.05a.57.57,0,0,1,.06-.39c.16-.35.33-.83.53-1.41a15.86,15.86,0,0,0,.47-1.8,19.47,19.47,0,0,0,.46-2.18,3.08,3.08,0,0,0,0-1.5,1.36,1.36,0,0,0-.94-.95,1.6,1.6,0,0,0-1.29,0,2.08,2.08,0,0,0-.89,1.42c-.2.75-.49,1.89-.87,3.41s-.93,3.49-1.66,5.88-1.82,5.34-3.26,8.85a1.08,1.08,0,0,0,0,.49.72.72,0,0,0,.41.48,1.57,1.57,0,0,0,.68.19,3.35,3.35,0,0,0,.71,0,2,2,0,0,0,.48-.13,1.27,1.27,0,0,0,.32-.24,6.18,6.18,0,0,0,.6-.86c.28-.46.7-1.14,1.25-2.07s1.31-2.22,2.26-3.87l4-6.95a.76.76,0,0,1,.24-.36c.06,0,.11,0,.12.06a.37.37,0,0,1,0,.26l-.58,1.29c-.26.56-.54,1.3-.86,2.23l-.91,2.67c-.34,1-.66,2.08-1,3.14a2.07,2.07,0,0,0,0,1.05c.17.63.45,1,.85,1a2.06,2.06,0,0,0,1.17-.23,2.41,2.41,0,0,0,.38-.22,1.37,1.37,0,0,0,.27-.22,1.53,1.53,0,0,0,.25-.3c.22-.27.6-.82,1.13-1.65s1.16-1.88,1.9-3.13,1.58-2.69,2.5-4.31,1.87-3.32,2.85-5.11c.15-.27.23-.39.24-.35a.42.42,0,0,1,0,.15A1.32,1.32,0,0,0,155.28,164.7Z"/><path class="cls-1" d="M57,50.27a4,4,0,0,1,2.73-2.13,5.6,5.6,0,0,1,2,.06l.83-4a7.84,7.84,0,0,0-1.75-.23A6.84,6.84,0,0,0,59,44.1a7,7,0,0,0-1.8.66A9.26,9.26,0,0,0,55.37,46a8.61,8.61,0,0,0-2.09,2.62,7.77,7.77,0,0,0-.84,3,8.08,8.08,0,0,0,2,5.9l0,0a8,8,0,0,0,2.58,2,7.94,7.94,0,0,0,3,.83,7.74,7.74,0,0,0,3-.38,8.28,8.28,0,0,0,2.78-1.6,9.1,9.1,0,0,0,1.6-1.73A7.79,7.79,0,0,0,68.37,55a7,7,0,0,0,.41-1.83,12.81,12.81,0,0,0,0-1.86l-4,.36a9,9,0,0,1,0,1.06,5.06,5.06,0,0,1-.2,1,3.51,3.51,0,0,1-.44.89,4.07,4.07,0,0,1-.75.82,3.44,3.44,0,0,1-1.36.74,3.6,3.6,0,0,1-1.46.1,4.13,4.13,0,0,1-1.45-.51,4.76,4.76,0,0,1-1.28-1.06l0,0a4.58,4.58,0,0,1-.84-1.4,4.25,4.25,0,0,1-.27-1.5A3.67,3.67,0,0,1,57,50.27Z"/><polygon class="cls-1" points="84.32 41.85 77.64 45.41 72.08 34.95 68.25 36.98 75.59 50.79 86.1 45.21 84.32 41.85"/><path class="cls-1" d="M97.08,37.77a2.74,2.74,0,0,1-2.23-.22,3.55,3.55,0,0,1-1.44-2.2L91,27l-4.25,1.21,2.41,8.44a8.89,8.89,0,0,0,1.35,2.92,5.7,5.7,0,0,0,2,1.75,5.83,5.83,0,0,0,2.55.64,10.45,10.45,0,0,0,3-.42,10.21,10.21,0,0,0,2.79-1.24,5.69,5.69,0,0,0,2.65-4.46,9,9,0,0,0-.39-3.29l-2.38-8.34-4.25,1.21L99,33.89a3.4,3.4,0,0,1-.08,2.55A2.8,2.8,0,0,1,97.08,37.77Z"/><path class="cls-1" d="M123,23.9a4.38,4.38,0,0,0-1.77-1,8.06,8.06,0,0,0-2.53-.28l-8,.25.48,15.63,8.06-.25A7.24,7.24,0,0,0,123.61,37a3.7,3.7,0,0,0,1.45-3.21v0a3.43,3.43,0,0,0-.92-2.44A5.42,5.42,0,0,0,121.83,30a4.35,4.35,0,0,0,1.68-1.33,3.39,3.39,0,0,0,.61-2.23v0a3.49,3.49,0,0,0-.31-1.42A3.44,3.44,0,0,0,123,23.9Zm-2.33,9.34v0a1.2,1.2,0,0,1-.5,1.08,2.76,2.76,0,0,1-1.53.41l-3.35.1L115.24,32l3.31-.1a2.78,2.78,0,0,1,1.62.33A1.2,1.2,0,0,1,120.71,33.24Zm-.83-5.83v.05a1.13,1.13,0,0,1-.5,1,2.8,2.8,0,0,1-1.52.38l-2.72.08-.08-2.74,2.81-.09a2.47,2.47,0,0,1,1.48.31A1.11,1.11,0,0,1,119.88,27.41Z"/><polygon class="cls-1" points="145.44 29.39 146.15 25.78 133.84 23.34 130.81 38.68 143.23 41.14 143.94 37.52 135.71 35.89 136.19 33.46 143.55 34.91 144.21 31.56 136.85 30.11 137.31 27.78 145.44 29.39"/></svg>